<?xml version="1.0" encoding="UTF-8"?>
<svg id="Capa_1" xmlns="http://www.w3.org/2000/svg" baseProfile="tiny" version="1.2" viewBox="0 0 300 300">
  <!-- Generator: Adobe Illustrator 29.6.1, SVG Export Plug-In . SVG Version: 2.1.1 Build 9)  -->
  <rect width="300" height="300" fill="#fff"/>
  <g>
    <path d="M207.9,193.6c-22.3,29.7-63.2,37.3-94.5,18.9-2.4-1.4-4.7-2.9-7-4.7-2.3-1.7-4.4-3.5-6.4-5.5-26.2-25-30.2-66.4-7.8-96.1l13.5,10.1c-16.7,22.2-14.3,53,4.6,72.3,1.9,2,4.1,3.9,6.3,5.6,2.3,1.7,4.7,3.2,7.1,4.6,23.8,12.8,54.1,6.7,70.8-15.5l13.5,10.1Z"/>
    <path d="M223.5,66.5c-2.1-1.8-4.2-3.6-6.5-5.4-2.3-1.7-4.6-3.3-6.9-4.8-48.5-31.1-113.7-20-148.9,26.7-35.2,46.7-27.9,112.5,15.4,150.5,2.1,1.9,4.3,3.7,6.5,5.4s4.6,3.3,6.9,4.8c48.5,31.1,113.7,20,148.9-26.7,35.2-46.7,27.9-112.5-15.4-150.5ZM100.1,230.2c-2.4-1.5-4.7-3-7-4.8-2.3-1.7-4.4-3.5-6.5-5.4-35.9-32.4-41.7-87.5-12.1-126.8,29.6-39.3,84.2-48.9,125.3-23.3,2.4,1.5,4.7,3,7,4.8,2.3,1.7,4.4,3.5,6.5,5.4,35.9,32.4,41.7,87.5,12.1,126.8-29.6,39.3-84.2,48.9-125.3,23.3Z"/>
    <path d="M246.9,35.4l18.4-24.4-13.5-10.1-18.4,24.4C167.8-18.7,78.3-4.1,30.2,59.7-17.9,123.5-7.2,213.6,53.1,264.6l-18.4,24.4,13.5,10.1,18.4-24.4c65.6,43.9,155.2,29.4,203.3-34.4,48.1-63.8,37.4-153.9-22.9-204.9ZM76.7,261.2c-2.3-1.5-4.6-3.1-6.9-4.8-2.3-1.7-4.4-3.5-6.6-5.3C10.4,205.7,1.1,126.2,43.6,69.8,86.1,13.4,165.1.4,223.2,38.8c2.3,1.5,4.7,3.1,6.9,4.8,2.3,1.7,4.4,3.5,6.5,5.3,52.9,45.3,62.2,124.8,19.7,181.2-42.5,56.4-121.5,69.4-179.6,31.1Z"/>
  </g>
</svg>